<?xml version="1.0" encoding="UTF-8"?>
<svg id="Layer_1" data-name="Layer 1" xmlns="http://www.w3.org/2000/svg" viewBox="0 0 100 100">
  <defs>
    <style>
      .cls-1 {
        fill: #fff;
        stroke-width: 2px;
      }

      .cls-1, .cls-2, .cls-3 {
        stroke: #1c3021;
      }

      .cls-1, .cls-3 {
        stroke-miterlimit: 10;
      }

      .cls-2 {
        stroke-linecap: round;
        stroke-linejoin: round;
      }

      .cls-2, .cls-3 {
        fill: none;
      }

      .cls-4 {
        fill: #1c3021;
      }
    </style>
  </defs>
  <circle class="cls-1" cx="50" cy="50" r="48.44"/>
  <path class="cls-4" d="M95.38,77.54l-11.41-11.41c2.05-4.63,3.19-9.75,3.19-15.13,0-20.66-16.75-37.41-37.41-37.41S12.34,30.34,12.34,51s16.75,37.41,37.41,37.41c10.61,0,20.18-4.41,26.99-11.51l9.64,9.64c1.24,1.24,2.87,1.86,4.5,1.86s3.26-.62,4.5-1.86c2.49-2.49,2.49-6.52,0-9Zm-23.68-5.55c-5.53,5.79-13.33,9.4-21.95,9.4-16.76,0-30.39-13.63-30.39-30.39s13.63-30.39,30.39-30.39,30.39,13.63,30.39,30.39c0,3.99-.77,7.8-2.18,11.3-1.45,3.63-3.59,6.91-6.26,9.69Z"/>
  <g>
    <path class="cls-3" d="M36.2,72.94c2.71-.33,10.99-1.69,18.25-8.63,7-6.69,8.83-14.53,9.34-17.26"/>
    <path class="cls-2" d="M64.69,42.79c.08-5.6,.15-11.1-3.25-13.02-1.48-.84-3.73-1.05-4.95,0-2.59,2.23,.64,9.13,1.13,10.19,1.65,3.53,4.71,7.57,6.18,7.09-.12-.65-.25-1.22-.38-1.71-.87-3.21-2.1-4.53-3.11-8.14-.53-1.88-.75-3.48-.85-4.53,.1,1.05,.32,2.65,.85,4.53,1.02,3.6,2.24,4.92,3.11,8.14,.13,.48,.27,1.06,.38,1.71,.01,0,.03,0,.04-.01,.22-.08,.8-.43,.85-4.24Z"/>
    <path class="cls-2" d="M63.83,52.76c3.55-1.88,7.04-3.73,9.38-2.18,1.02,.67,1.89,2.04,1.62,3.16-.58,2.38-6.04,2.58-6.88,2.61-2.79,.1-6.38-.53-6.55-1.63,.46-.14,.86-.24,1.22-.31,2.34-.49,3.58-.15,6.21-.68,1.37-.28,2.46-.66,3.17-.94-.7,.28-1.8,.66-3.17,.94-2.63,.53-3.88,.18-6.21,.68-.35,.07-.76,.18-1.22,.31,0-.01,0-.02,0-.03-.02-.17,.01-.65,2.43-1.93Z"/>
    <path class="cls-2" d="M51.19,63.34c-3.74-2.03-7.41-4.02-7.42-6.99,0-1.29,.69-2.86,1.84-3.28,2.44-.89,5.81,3.81,6.33,4.53,1.73,2.4,3.27,5.93,2.4,6.73-.39-.32-.72-.62-.99-.89-1.81-1.77-2.23-3.07-4.24-5.08-1.05-1.05-2.03-1.79-2.69-2.24,.66,.46,1.64,1.19,2.69,2.24,2.01,2.01,2.43,3.31,4.24,5.08,.27,.27,.6,.57,.99,.89,0,0-.01,.02-.02,.02-.14,.11-.58,.37-3.13-1.01Z"/>
  </g>
  <circle class="cls-3" cx="35.55" cy="34.75" r="4.21"/>
  <circle class="cls-3" cx="55.74" cy="74.65" r="2.38"/>
  <circle class="cls-3" cx="43.6" cy="28.09" r="1.56"/>
</svg>