<?xml version="1.0" encoding="UTF-8"?>
<svg id="Layer_1" data-name="Layer 1" xmlns="http://www.w3.org/2000/svg" xmlns:xlink="http://www.w3.org/1999/xlink" viewBox="0 0 1920 1000">
  <defs>
    <style>
      .cls-1 {
        fill: #f5eae1;
      }

      .cls-2 {
        fill: #ec893c;
      }

      .cls-3 {
        fill: #4a5f4d;
      }

      .cls-4 {
        fill: #f8ece0;
      }

      .cls-5 {
        fill: #e9e1d5;
      }

      .cls-6 {
        fill: #f8c4b0;
      }

      .cls-7 {
        fill: #e1784c;
      }

      .cls-8 {
        fill: #eba794;
      }

      .cls-9 {
        fill: none;
      }

      .cls-10 {
        fill: url(#New_Pattern_7);
      }

      .cls-11 {
        fill: #919d87;
      }

      .cls-12 {
        fill: #cac5b8;
      }

      .cls-13 {
        fill: #eb883b;
      }

      .cls-14 {
        fill: #274538;
      }
    </style>
    <pattern id="New_Pattern_7" data-name="New Pattern 7" x="0" y="0" width="1000" height="1000" patternTransform="translate(-1651.13 79.06)" patternUnits="userSpaceOnUse" viewBox="0 0 1000 1000">
      <g>
        <rect class="cls-9" width="1000" height="1000"/>
        <g>
          <path class="cls-2" d="M1000,901.9v98.1h-111.11v-78.69c11.14-6.86,21.5-15.11,33.41-20.52,24.3-11.03,52.59-8.77,77.7,1.11Z"/>
          <path class="cls-8" d="M1000,888.89v13.01c-25.11-9.88-53.4-12.14-77.7-1.11-11.91,5.41-22.27,13.66-33.41,20.52v-32.42h111.11Z"/>
          <rect class="cls-4" x="888.89" y="777.78" width="111.11" height="111.11"/>
          <path class="cls-3" d="M1000,666.67v111.11h-111.11v-74.83c12.23-10.02,23.53-20.97,32.9-33.77,.61-.83,1.18-1.67,1.76-2.51h76.45Z"/>
          <path class="cls-2" d="M1000,561.17v105.5h-76.45c17.58-25.11,27.3-55.26,45.93-79.65,7.97-10.43,18.7-19.67,30.52-25.85Z"/>
          <path class="cls-6" d="M1000,555.55v5.62c-11.82,6.18-22.55,15.42-30.52,25.85-18.63,24.39-28.35,54.54-45.93,79.65h-34.66v-16.51c1.48-1.06,2.7-2.04,3.54-2.83,10.43-9.86,17.29-23.44,19.04-37.69,.52-4.31,.59-8.77-.92-12.82-1.5-4.07-4.8-7.65-9.03-8.55-4.54-.95-8.89,1.26-12.63,4.28v-37h111.11Z"/>
          <path class="cls-11" d="M1000,444.45v111.1h-111.11v-106.45c1.74-1.52,3.43-3.07,5.11-4.65h106Z"/>
          <path class="cls-3" d="M1000,333.34v111.11h-106c6.37-6.07,12.31-12.61,17.63-19.67,19.66-26.03,30.76-59.07,28.48-91.44h59.89Z"/>
          <path class="cls-14" d="M1000,260.86v72.48h-59.89c-.33-4.78-.95-9.54-1.88-14.26-5.77-29.15-24.08-56.01-49.34-71.17v-25.69h65.7c.85,2.23,1.82,4.44,2.93,6.62,8.36,16.35,24.63,28.01,42.48,32.02Z"/>
          <path class="cls-8" d="M1000,222.22v38.64c-17.85-4.01-34.12-15.67-42.48-32.02-1.11-2.18-2.08-4.39-2.93-6.62h45.41Z"/>
          <path class="cls-3" d="M1000,111.12v111.1h-45.41c-12.48-32.87,2.13-71.63-3.27-107.2-.2-1.31-.43-2.61-.67-3.9h49.35Z"/>
          <path class="cls-4" d="M1000,0V111.12h-49.35c-3.92-20.38-13.75-39.37-17.56-59.8-3.22-17.21-1.39-34.88,4.34-51.32h62.57Z"/>
          <path class="cls-6" d="M954.59,222.22h-65.7V111.12h61.76c.24,1.29,.47,2.59,.67,3.9,5.4,35.57-9.21,74.33,3.27,107.2Z"/>
          <path class="cls-2" d="M950.65,111.12h-61.76V0h48.54c-5.73,16.44-7.56,34.11-4.34,51.32,3.81,20.43,13.64,39.42,17.56,59.8Z"/>
          <path class="cls-6" d="M940.11,333.34c2.28,32.37-8.82,65.41-28.48,91.44-5.32,7.06-11.26,13.6-17.63,19.67h-5.11v-111.11h51.22Z"/>
          <path class="cls-8" d="M940.11,333.34h-51.22v-85.43c25.26,15.16,43.57,42.02,49.34,71.17,.93,4.72,1.55,9.48,1.88,14.26Z"/>
          <path class="cls-11" d="M888.89,666.67h34.66c-.58,.84-1.15,1.68-1.76,2.51-9.37,12.8-20.67,23.75-32.9,33.77v-36.28Z"/>
          <path class="cls-1" d="M910.55,596.82c1.51,4.05,1.44,8.51,.92,12.82-1.75,14.25-8.61,27.83-19.04,37.69-.84,.79-2.06,1.77-3.54,2.83v-57.61c3.74-3.02,8.09-5.23,12.63-4.28,4.23,.9,7.53,4.48,9.03,8.55Z"/>
          <path class="cls-5" d="M888.89,444.45h5.11c-1.68,1.58-3.37,3.13-5.11,4.65v-4.65Z"/>
          <path class="cls-14" d="M888.89,921.31v78.69h-96.94c-4.15-9.13-9.12-17.96-14.16-26.66v-70.33c5.7,7.42,12.64,13.89,20.55,18.96,23.53,15.04,54.87,17.03,80.13,5.08,3.58-1.7,7.03-3.65,10.42-5.74Z"/>
          <path class="cls-8" d="M888.89,888.89v32.42c-3.39,2.09-6.84,4.04-10.42,5.74-25.26,11.95-56.6,9.96-80.13-5.08-7.91-5.07-14.85-11.54-20.55-18.96v-14.12h111.1Z"/>
          <path class="cls-8" d="M888.89,777.78v111.11h-111.1v-91.09c4.59-7.02,9.92-13.69,15.71-20.02h95.39Z"/>
          <path class="cls-12" d="M888.89,702.95v74.83h-95.39c9.68-10.59,20.68-20.19,31.93-28.68,20.78-15.71,43.39-29.69,63.46-46.15Z"/>
          <path class="cls-7" d="M888.89,666.67v36.28c-20.07,16.46-42.68,30.44-63.46,46.15-11.25,8.49-22.25,18.09-31.93,28.68h-15.71v-111.11h55.51c1.05,.28,2.08,.29,3.06,0h52.53Z"/>
          <path class="cls-12" d="M888.89,650.16v16.51h-52.53c.95-.28,1.86-.83,2.75-1.71,6.95-7.01,4.07-25.72,3.63-34.66-.63-12.57-2.46-25.07-5.48-37.29-2.59-10.51-7.82-22.45-18.45-24.47-10.34-1.97-20.07,7.58-22.05,17.91-1.98,10.34,1.72,20.86,5.87,30.53,3.37,7.88,18.6,46.44,30.67,49.69h-55.51v-111.12h111.1v37c-1.3,1.04-2.53,2.19-3.68,3.34-12.93,13.05-30.71,35.22-32.84,54.29-2.38,21.45,25.1,8.12,36.52-.02Z"/>
          <path class="cls-13" d="M888.89,592.55v57.61c-11.42,8.14-38.9,21.47-36.52,.02,2.13-19.07,19.91-41.24,32.84-54.29,1.15-1.15,2.38-2.3,3.68-3.34Z"/>
          <path class="cls-4" d="M888.89,449.1v106.45h-111.1v-62.9c13.79,2.96,29.14-.28,42.86-4.93,24.89-8.45,48.54-21.35,68.24-38.62Z"/>
          <path class="cls-12" d="M888.89,444.45v4.65c-19.7,17.27-43.35,30.17-68.24,38.62-13.72,4.65-29.07,7.89-42.86,4.93v-48.2h111.1Z"/>
          <rect class="cls-4" x="777.79" y="333.34" width="111.1" height="111.11"/>
          <path class="cls-3" d="M888.89,247.91v85.43h-111.1v-68.47c3.42-4.23,7.47-8.22,12.3-11.9,21.67-16.52,51.72-22.09,77.84-14.34,7.4,2.19,14.41,5.34,20.96,9.28Z"/>
          <path class="cls-5" d="M888.89,222.22v25.69c-6.55-3.94-13.56-7.09-20.96-9.28-26.12-7.75-56.17-2.18-77.84,14.34-4.83,3.68-8.88,7.67-12.3,11.9v-42.65h111.1Z"/>
          <path class="cls-7" d="M888.89,111.12v111.1h-111.1v-56.16c1.97-9.92,2.12-20.03,0-29.03v-25.91h111.1Z"/>
          <rect class="cls-14" x="777.79" y="0" width="111.1" height="111.12"/>
          <path class="cls-1" d="M842.74,630.3c.44,8.94,3.32,27.65-3.63,34.66-.89,.88-1.8,1.43-2.75,1.71h-3.06c-12.07-3.25-27.3-41.81-30.67-49.69-4.15-9.67-7.85-20.19-5.87-30.53,1.98-10.33,11.71-19.88,22.05-17.91,10.63,2.02,15.86,13.96,18.45,24.47,3.02,12.22,4.85,24.72,5.48,37.29Z"/>
          <path class="cls-1" d="M777.79,777.78h15.71c-5.79,6.33-11.12,13-15.71,20.02v-20.02Z"/>
          <path class="cls-3" d="M791.95,1000h-14.16v-26.66c5.04,8.7,10.01,17.53,14.16,26.66Z"/>
          <path class="cls-6" d="M777.79,973.34v26.66h-111.12v-111.11h61.91c15.71,26.97,31.42,53.92,47.13,80.89,.68,1.18,1.38,2.37,2.08,3.56Z"/>
          <path class="cls-3" d="M777.79,903.01v70.33c-.7-1.19-1.4-2.38-2.08-3.56-15.71-26.97-31.42-53.92-47.13-80.89h40.37c2.48,4.97,5.44,9.7,8.84,14.12Z"/>
          <path class="cls-8" d="M777.79,888.89v14.12c-3.4-4.42-6.36-9.15-8.84-14.12h8.84Z"/>
          <path class="cls-8" d="M777.79,797.8v91.09h-8.84c-5.79-11.62-8.96-24.55-8.84-37.54,.17-19.43,7.04-37.37,17.68-53.55Z"/>
          <path class="cls-14" d="M777.79,777.78v20.02c-10.64,16.18-17.51,34.12-17.68,53.55-.12,12.99,3.05,25.92,8.84,37.54h-40.37c-11.09-19.02-22.16-38.03-33.24-57.05-7.94-13.63-16.42-27.77-28.67-37.37v-16.69h111.12Z"/>
          <path class="cls-8" d="M777.79,666.67v111.11h-111.12v-27.17c20.6,4.23,42.08,4.84,61.59-2.55,23.92-9.05,43.61-32.72,41.52-58.22-.67-8.17-3.41-15.88-7.22-23.17h15.23Z"/>
          <path class="cls-8" d="M777.79,555.55v111.12h-15.23c-2.95-5.64-6.53-11.02-10.27-16.14-17.04-23.27-52.1-65.83-85.62-75.04v-19.94h111.12Z"/>
          <path class="cls-3" d="M777.79,492.65v62.9h-111.12v-111.1h74.72c1.59,18.53,8.17,34.39,24.13,43.58,3.88,2.23,8,3.72,12.27,4.62Z"/>
          <path class="cls-12" d="M777.79,444.45v48.2c-4.27-.9-8.39-2.39-12.27-4.62-15.96-9.19-22.54-25.05-24.13-43.58h36.4Z"/>
          <path class="cls-8" d="M777.79,333.34v111.11h-36.4c-3.01-34.98,11.79-79.46,14.91-106.45,.17-1.55,.35-3.11,.52-4.66h20.97Z"/>
          <path class="cls-12" d="M777.79,264.87v68.47h-20.97c2.83-25.06,5.49-49.34,20.97-68.47Z"/>
          <path class="cls-6" d="M777.79,222.22v42.65c-15.48,19.13-18.14,43.41-20.97,68.47h-85.56c-.74-10.09-1.46-20.17-2.18-30.25-.4-5.62-1.09-12.29-2.41-19.07v-61.8h111.12Z"/>
          <path class="cls-1" d="M777.79,166.06v56.16h-55.26v-3.33c9.24,0,18.3-1.84,26.35-6.42,14.06-7.99,24.99-26.82,28.91-46.41Z"/>
          <path class="cls-6" d="M777.79,137.03v29.03c-3.92,19.59-14.85,38.42-28.91,46.41-8.05,4.58-17.11,6.42-26.35,6.42-10.17,0-20.59-2.22-30.21-5.51-8.94-3.03-17.88-7.38-25.65-12.98V118.22c3.92-2.66,8.6-5.04,13.79-7.1h78.12c4,2.23,7.56,4.97,10.47,8.29,4.32,4.89,7.14,10.96,8.74,17.62Z"/>
          <path class="cls-1" d="M777.79,111.12v25.91c-1.6-6.66-4.42-12.73-8.74-17.62-2.91-3.32-6.47-6.06-10.47-8.29h19.21Z"/>
          <path class="cls-7" d="M777.79,0V111.12h-19.21c-21.02-11.74-54.72-9.3-78.12,0h-13.79v-41c14.23-15.52,20.71-37.32,21.38-58.52,.12-3.87,.05-7.73-.13-11.6h89.87Z"/>
          <path class="cls-12" d="M769.78,689.84c2.09,25.5-17.6,49.17-41.52,58.22-19.51,7.39-40.99,6.78-61.59,2.55v-83.94h95.89c3.81,7.29,6.55,15,7.22,23.17Z"/>
          <path class="cls-2" d="M762.56,666.67h-95.89v-91.18c33.52,9.21,68.58,51.77,85.62,75.04,3.74,5.12,7.32,10.5,10.27,16.14Z"/>
          <path class="cls-1" d="M758.58,111.12h-78.12c23.4-9.3,57.1-11.74,78.12,0Z"/>
          <path class="cls-14" d="M756.82,333.34c-.17,1.55-.35,3.11-.52,4.66-3.12,26.99-17.92,71.47-14.91,106.45h-74.72v-66.19c6.15-7.99,6.32-20.63,5.55-31.38-.32-4.51-.64-9.03-.96-13.54h85.56Z"/>
          <path class="cls-5" d="M728.58,888.89h-61.91v-94.42c12.25,9.6,20.73,23.74,28.67,37.37,11.08,19.02,22.15,38.03,33.24,57.05Z"/>
          <path class="cls-1" d="M722.53,218.89v3.33h-55.86v-21.82c7.77,5.6,16.71,9.95,25.65,12.98,9.62,3.29,20.04,5.51,30.21,5.51Z"/>
          <path class="cls-8" d="M687.92,0c.18,3.87,.25,7.73,.13,11.6-.67,21.2-7.15,43-21.38,58.52V0h21.25Z"/>
          <path class="cls-1" d="M672.22,346.88c.77,10.75,.6,23.39-5.55,31.38v-44.92h4.59c.32,4.51,.64,9.03,.96,13.54Z"/>
          <path class="cls-1" d="M671.26,333.34h-4.59v-49.32c1.32,6.78,2.01,13.45,2.41,19.07,.72,10.08,1.44,20.16,2.18,30.25Z"/>
          <rect class="cls-4" x="555.55" y="888.89" width="111.12" height="111.11"/>
          <path class="cls-6" d="M666.67,794.47v94.42h-111.12v-48.49c.55-1.19,1.11-2.39,1.7-3.58,9.3-18.91,23.24-36.13,41.85-46,18.62-9.88,42.26-11.47,60.59-1.07,2.47,1.41,4.77,3,6.98,4.72Z"/>
          <path class="cls-13" d="M666.67,777.78v16.69c-2.21-1.72-4.51-3.31-6.98-4.72-18.33-10.4-41.97-8.81-60.59,1.07-18.61,9.87-32.55,27.09-41.85,46-.59,1.19-1.15,2.39-1.7,3.58v-62.62h111.12Z"/>
          <path class="cls-12" d="M666.67,750.61v27.17h-111.12v-111.11h13.7c.13,2.46,.38,4.92,.81,7.35,6.74,38.29,45.33,62.67,82.76,73.21,4.54,1.28,9.17,2.42,13.85,3.38Z"/>
          <path class="cls-2" d="M666.67,666.67v83.94c-4.68-.96-9.31-2.1-13.85-3.38-37.43-10.54-76.02-34.92-82.76-73.21-.43-2.43-.68-4.89-.81-7.35h97.42Z"/>
          <path class="cls-14" d="M666.67,575.49v91.18h-97.42c-2.37-43.12,39.05-89.63,81.95-92.86,5.07-.38,10.25,.25,15.47,1.68Z"/>
          <path class="cls-8" d="M666.67,555.55v19.94c-5.22-1.43-10.4-2.06-15.47-1.68-42.9,3.23-84.32,49.74-81.95,92.86h-13.7v-111.12h111.12Z"/>
          <rect class="cls-7" x="555.55" y="444.45" width="111.12" height="111.1"/>
          <path class="cls-2" d="M666.67,378.26v66.19h-111.12v-111.11h15.96c4.88,7.82,12.06,14.41,19.34,20.24,11.86,9.48,24.57,17.9,37.91,25.14,10.03,5.41,22.51,10.13,32.37,4.42,2.25-1.29,4.06-2.95,5.54-4.88Z"/>
          <path class="cls-1" d="M666.67,333.34v44.92c-1.48,1.93-3.29,3.59-5.54,4.88-9.86,5.71-22.34,.99-32.37-4.42-13.34-7.24-26.05-15.66-37.91-25.14-7.28-5.83-14.46-12.42-19.34-20.24h95.16Z"/>
          <path class="cls-12" d="M666.67,284.02v49.32h-95.16c-2.16-3.44-3.87-7.13-4.94-11.1-4.42-16.4,3.26-34.15,15.25-46.19,11.13-11.19,37.13-31.38,54.11-29.96,19.29,1.59,27.26,20.11,30.74,37.93Z"/>
          <path class="cls-5" d="M666.67,222.22v61.8c-3.48-17.82-11.45-36.34-30.74-37.93-16.98-1.42-42.98,18.77-54.11,29.96-11.99,12.04-19.67,29.79-15.25,46.19,1.07,3.97,2.78,7.66,4.94,11.1h-15.96v-111.12h111.12Z"/>
          <path class="cls-3" d="M666.67,200.4v21.82h-111.12V111.12h111.12v7.1c-.76,.51-1.51,1.04-2.21,1.58-14.21,10.8-23.54,28.9-20.84,46.55,2.15,14.16,11.24,25.56,23.05,34.05Z"/>
          <path class="cls-5" d="M666.67,118.22v82.18c-11.81-8.49-20.9-19.89-23.05-34.05-2.7-17.65,6.63-35.75,20.84-46.55,.7-.54,1.45-1.07,2.21-1.58Z"/>
          <path class="cls-5" d="M666.67,70.12v41h-111.12v-15.51c3.55,.12,7.09,.25,10.63,.37,33.87,1.2,71.55,1.08,96.52-21.83,1.39-1.29,2.7-2.64,3.97-4.03Z"/>
          <path class="cls-2" d="M666.67,0V70.12c-1.27,1.39-2.58,2.74-3.97,4.03-24.97,22.91-62.65,23.03-96.52,21.83-3.54-.12-7.08-.25-10.63-.37V0h111.12Z"/>
          <path class="cls-8" d="M555.55,888.89v111.11h-1.39c-4.82-17.03-8.82-34.26-11.2-51.8-2.66-19.57-3.21-39.7-.78-59.31h13.37Z"/>
          <path class="cls-13" d="M555.55,840.4v48.49h-13.37c2.09-16.76,6.35-33.15,13.37-48.49Z"/>
          <path class="cls-3" d="M555.55,777.78v62.62c-7.02,15.34-11.28,31.73-13.37,48.49h-97.73v-111.11h111.1Z"/>
          <path class="cls-7" d="M555.55,666.67v111.11h-111.1v-107.94c3.16-.88,6.26-1.93,9.25-3.17h101.85Z"/>
          <path class="cls-12" d="M555.55,555.55v111.12h-101.85c13.99-5.76,25.93-15.49,32.34-29.1,11.08-23.54,3.37-52.09,11.72-76.74,.62-1.79,1.31-3.54,2.08-5.28h55.71Z"/>
          <path class="cls-14" d="M555.55,444.45v111.1h-55.71c10.18-23.28,32.68-41.1,37.5-66.14,3.1-16.14-2.18-31.95-12.15-44.96h30.36Z"/>
          <path class="cls-11" d="M555.55,333.34v111.11h-30.36c-10.08-13.16-24.97-23.47-40.85-28.32-13.49-4.13-26.64-4.77-39.89-4.31v-78.48h111.1Z"/>
          <rect class="cls-14" x="444.45" y="222.22" width="111.1" height="111.12"/>
          <rect class="cls-11" x="444.45" y="111.12" width="111.1" height="111.1"/>
          <path class="cls-4" d="M555.55,95.61v15.51h-111.1V0h31.57c.3,16.52,.58,33.03,.86,49.53,.24,13.61,1.35,29.11,11.99,37.6,7.7,6.14,18.29,6.75,28.15,7.1,12.85,.45,25.68,.92,38.53,1.38Z"/>
          <path class="cls-3" d="M555.55,0V95.61c-12.85-.46-25.68-.93-38.53-1.38-9.86-.35-20.45-.96-28.15-7.1-10.64-8.49-11.75-23.99-11.99-37.6-.28-16.5-.56-33.01-.86-49.53h79.53Z"/>
          <path class="cls-2" d="M554.16,1000h-109.71v-111.11h97.73c-2.43,19.61-1.88,39.74,.78,59.31,2.38,17.54,6.38,34.77,11.2,51.8Z"/>
          <path class="cls-2" d="M525.19,444.45c9.97,13.01,15.25,28.82,12.15,44.96-4.82,25.04-27.32,42.86-37.5,66.14h-55.39v-111.1h80.74Z"/>
          <path class="cls-13" d="M525.19,444.45h-80.74v-32.63c13.25-.46,26.4,.18,39.89,4.31,15.88,4.85,30.77,15.16,40.85,28.32Z"/>
          <path class="cls-11" d="M444.45,555.55h55.39c-.77,1.74-1.46,3.49-2.08,5.28-8.35,24.65-.64,53.2-11.72,76.74-6.41,13.61-18.35,23.34-32.34,29.1h-9.25v-111.12Z"/>
          <path class="cls-5" d="M444.45,666.67h9.25c-2.99,1.24-6.09,2.29-9.25,3.17v-3.17Z"/>
          <path class="cls-14" d="M444.45,888.89v111.11h-58.5c-.96-24.75-8.94-49.36-22.84-69.84,10.18-4.34,17.91-13.42,23.68-23.01,2.75-4.54,6.84-11.39,8.95-18.26h48.71Z"/>
          <path class="cls-8" d="M444.45,777.78v111.11h-48.71c2.43-7.85,2.26-15.73-5.51-20.15-12.17-6.93-34.16,7.62-43.82,14.46-2.46,1.76-4.85,3.64-7.07,5.69h-6v-111.11h31.89c1.05,3.98,2.31,7.92,3.63,11.8,4.8,13.97,10.61,27.6,17.32,40.75,2.94,5.74,6.04,11.38,9.33,16.93,2.2,3.72,5.24,10.91,10.53,11.05,7.82,.2,10.6-24.5,11.8-30.64,3.23-16.4,4.55-33.18,3.95-49.89h22.66Z"/>
          <path class="cls-5" d="M444.45,669.84v107.94h-22.66c-.35-9.65-1.34-19.28-2.98-28.8-1.58-9.06-4.14-18.7-11.26-24.53-8.85-7.25-22.77-5.93-31.68,1.25-8.92,7.18-13.18,18.95-13.53,30.38-.22,7.34,1,14.59,2.89,21.7h-31.89v-111.11h50.87c11.13,3.44,22.49,5.8,34.15,6.23,8.68,.31,17.6-.72,26.09-3.06Z"/>
          <path class="cls-13" d="M444.45,666.67v3.17c-8.49,2.34-17.41,3.37-26.09,3.06-11.66-.43-23.02-2.79-34.15-6.23h60.24Z"/>
          <path class="cls-3" d="M444.45,555.55v111.12h-60.24c-14.58-4.51-28.77-10.87-42.69-17.18-2.73-1.23-5.46-2.48-8.18-3.72v-90.22h111.11Z"/>
          <rect class="cls-4" x="333.34" y="444.45" width="111.11" height="111.1"/>
          <path class="cls-1" d="M444.45,411.82v32.63h-111.11v-17.73c11.03-5.95,22.53-10.32,34.15-12.43,14.45-2.64,29.39,.42,44-.35,11.21-.6,22.12-1.73,32.96-2.12Z"/>
          <path class="cls-7" d="M444.45,333.34v78.48c-10.84,.39-21.75,1.52-32.96,2.12-14.61,.77-29.55-2.29-44,.35-11.62,2.11-23.12,6.48-34.15,12.43v-93.38h111.11Z"/>
          <path class="cls-8" d="M444.45,222.22v111.12h-111.11v-32.72c18.3,12.81,37.36,22.69,50.38,19.21,29.35-7.81,28.05-72.19,24.7-93.91-.2-1.23-.43-2.46-.67-3.7h36.7Z"/>
          <path class="cls-6" d="M444.45,111.12v111.1h-36.7c-6.06-30.7-28.07-60.16-58.86-64.76-5.2-.79-10.41-.83-15.55-.28v-46.06h111.11Z"/>
          <rect class="cls-3" x="333.34" y="0" width="111.11" height="111.12"/>
          <path class="cls-13" d="M421.79,777.78c.6,16.71-.72,33.49-3.95,49.89-1.2,6.14-3.98,30.84-11.8,30.64-5.29-.14-8.33-7.33-10.53-11.05-3.29-5.55-6.39-11.19-9.33-16.93-6.71-13.15-12.52-26.78-17.32-40.75-1.32-3.88-2.58-7.82-3.63-11.8h56.56Z"/>
          <path class="cls-1" d="M421.79,777.78h-56.56c-1.89-7.11-3.11-14.36-2.89-21.7,.35-11.43,4.61-23.2,13.53-30.38,8.91-7.18,22.83-8.5,31.68-1.25,7.12,5.83,9.68,15.47,11.26,24.53,1.64,9.52,2.63,19.15,2.98,28.8Z"/>
          <path class="cls-13" d="M408.42,225.92c3.35,21.72,4.65,86.1-24.7,93.91-13.02,3.48-32.08-6.4-50.38-19.21v-78.4h74.41c.24,1.24,.47,2.47,.67,3.7Z"/>
          <path class="cls-13" d="M407.75,222.22h-74.41v-65.04c5.14-.55,10.35-.51,15.55,.28,30.79,4.6,52.8,34.06,58.86,64.76Z"/>
          <path class="cls-1" d="M390.23,868.74c7.77,4.42,7.94,12.3,5.51,20.15h-56.4c2.22-2.05,4.61-3.93,7.07-5.69,9.66-6.84,31.65-21.39,43.82-14.46Z"/>
          <path class="cls-12" d="M339.34,888.89h56.4c-2.11,6.87-6.2,13.72-8.95,18.26-5.77,9.59-13.5,18.67-23.68,23.01-8.03-11.82-18.02-22.26-29.77-30.54v-3.99c1.73-2.45,3.78-4.68,6-6.74Z"/>
          <path class="cls-5" d="M385.95,1000h-52.61v-74.62c6.49,6.62,17.63,8.85,26.79,5.92,1.02-.33,2.01-.72,2.98-1.14,13.9,20.48,21.88,45.09,22.84,69.84Z"/>
          <path class="cls-13" d="M384.21,666.67h-50.87v-20.9c2.72,1.24,5.45,2.49,8.18,3.72,13.92,6.31,28.11,12.67,42.69,17.18Z"/>
          <path class="cls-5" d="M363.11,930.16c-.97,.42-1.96,.81-2.98,1.14-9.16,2.93-20.3,.7-26.79-5.92v-25.76c11.75,8.28,21.74,18.72,29.77,30.54Z"/>
          <path class="cls-1" d="M333.34,888.89h6c-2.22,2.06-4.27,4.29-6,6.74v-6.74Z"/>
          <path class="cls-14" d="M333.34,925.38v74.62h-111.12v-111.11h93.35c5.49,2.91,10.87,6.03,15.99,9.49t-.02,0c-3.55,6.19-4.94,13.92-2.39,20.58,.95,2.48,2.41,4.6,4.19,6.41Z"/>
          <path class="cls-3" d="M333.34,899.62v25.76c-1.78-1.81-3.24-3.93-4.19-6.41-2.55-6.66-1.16-14.39,2.39-20.58t.02,0c.28,.19,.57,.39,.87,.58,.3,.21,.6,.45,.91,.66Z"/>
          <path class="cls-5" d="M333.34,895.63v3.99c-.31-.21-.61-.45-.91-.66-.3-.19-.59-.39-.87-.58,.53-.95,1.15-1.86,1.78-2.75Z"/>
          <path class="cls-1" d="M333.34,888.89v6.74c-.63,.89-1.25,1.8-1.78,2.75-5.12-3.46-10.5-6.58-15.99-9.49h17.77Z"/>
          <path class="cls-7" d="M333.34,777.78v111.11h-17.77c-25.93-13.74-54.83-23.16-73.79-45.23-8.96-10.41-14.84-22.69-19.56-35.66v-30.22h111.12Z"/>
          <rect class="cls-6" x="222.22" y="666.67" width="111.12" height="111.11"/>
          <path class="cls-5" d="M333.34,645.77v20.9h-111.12v-111.12h21.74c2.6,22.89,16.8,43.46,34.57,58.29,16.3,13.58,35.47,23.06,54.81,31.93Z"/>
          <path class="cls-6" d="M333.34,555.55v90.22c-19.34-8.87-38.51-18.35-54.81-31.93-17.77-14.83-31.97-35.4-34.57-58.29h89.38Z"/>
          <path class="cls-12" d="M333.34,444.45v111.1h-89.38c-.12-1.04-.22-2.08-.29-3.14-1.49-22.53,8.44-44.37,21.31-62.91,10.81-15.58,25.33-31.66,41.93-45.05h26.43Z"/>
          <path class="cls-3" d="M333.34,426.72v17.73h-26.43c8.35-6.72,17.23-12.77,26.43-17.73Z"/>
          <path class="cls-3" d="M333.34,333.34v93.38c-9.2,4.96-18.08,11.01-26.43,17.73h-84.69v-111.11h111.12Z"/>
          <path class="cls-2" d="M333.34,300.62v32.72h-111.12v-111.12h36.41c1.12,16.55,14.66,29.96,27.73,40.64,9.75,7.95,27.95,24.44,46.98,37.76Z"/>
          <path class="cls-4" d="M333.34,222.22v78.4c-19.03-13.32-37.23-29.81-46.98-37.76-13.07-10.68-26.61-24.09-27.73-40.64h74.71Z"/>
          <path class="cls-1" d="M333.34,157.18v65.04h-74.71c-.07-.88-.09-1.78-.08-2.69,.23-15.52,11.67-28.51,23.69-38.35,14.73-12.06,32.52-21.98,51.1-24Z"/>
          <path class="cls-8" d="M333.34,111.12v46.06c-18.58,2.02-36.37,11.94-51.1,24-12.02,9.84-23.46,22.83-23.69,38.35-.01,.91,.01,1.81,.08,2.69h-36.41v-12.36c5-5.5,9.2-11.75,12.41-18.45,5.12-10.68,12.86-30.51-2.73-35.86-3.07-1.06-6.35-1.52-9.68-1.52v-32.47c4.01,7.52,8.45,14.82,13.33,21.8,5.16,7.36,11.8,15.8,16.31,2.88,3.8-10.84,5.81-22.95,6.81-35.12h74.67Z"/>
          <path class="cls-2" d="M333.34,0V111.12h-74.67c.86-10.45,.96-20.94,.8-30.69-.21-12.11-1.45-24.72-7.81-35.03-6.11-9.95-18.18-17.02-29.44-14.39V0h111.12Z"/>
          <path class="cls-5" d="M315.57,888.89h-93.35v-80.89c4.72,12.97,10.6,25.25,19.56,35.66,18.96,22.07,47.86,31.49,73.79,45.23Z"/>
          <path class="cls-6" d="M222.22,444.45h84.69c-16.6,13.39-31.12,29.47-41.93,45.05-12.87,18.54-22.8,40.38-21.31,62.91,.07,1.06,.17,2.1,.29,3.14h-21.74v-111.1Z"/>
          <path class="cls-8" d="M259.47,80.43c.16,9.75,.06,20.24-.8,30.69h-36.45V31.01c11.26-2.63,23.33,4.44,29.44,14.39,6.36,10.31,7.6,22.92,7.81,35.03Z"/>
          <path class="cls-12" d="M222.22,111.12h36.45c-1,12.17-3.01,24.28-6.81,35.12-4.51,12.92-11.15,4.48-16.31-2.88-4.88-6.98-9.32-14.28-13.33-21.8v-10.44Z"/>
          <path class="cls-11" d="M231.9,155.55c15.59,5.35,7.85,25.18,2.73,35.86-3.21,6.7-7.41,12.95-12.41,18.45v-55.83c3.33,0,6.61,.46,9.68,1.52Z"/>
          <path class="cls-4" d="M222.22,888.89v111.11h-90.43c1.43-15.51,2.02-31.06,.96-46.6-1.51-22.3-6.72-44.78-16.94-64.51h106.41Z"/>
          <path class="cls-6" d="M222.22,808v80.89H115.81c-1.47-2.82-3.02-5.61-4.69-8.32v-102.79h101.5c3.1,10.14,6.02,20.38,9.6,30.22Z"/>
          <path class="cls-5" d="M222.22,777.78v30.22c-3.58-9.84-6.5-20.08-9.6-30.22h9.6Z"/>
          <path class="cls-7" d="M222.22,666.67v111.11h-9.6c-5.68-18.54-11.95-36.75-24.04-51.54-18.24-22.35-49.21-32.12-77.46-27.55v-32.02h111.1Z"/>
          <path class="cls-14" d="M222.22,555.55v111.12H111.12v-59.82c13.89-.23,28.35-5.94,39.67-14.41,12.82-9.57,23.08-22.43,29.94-36.89h41.49Z"/>
          <path class="cls-5" d="M222.22,444.45v111.1h-41.49c6.38-13.43,9.84-28.26,9.69-43.15-.21-20.53-10.96-47.6-27.57-67.95h59.37Z"/>
          <path class="cls-4" d="M222.22,333.34v111.11h-59.37c-14.02-17.19-32.21-29.59-51.73-29.2v-81.91h111.1Z"/>
          <path class="cls-14" d="M222.22,222.22v111.12H111.12v-66.66c14.39-2.34,28.19-8.2,39.58-17.32,7.86-6.29,14.48-14.08,19.6-22.74,3.6,2.83,8.33,4.26,12.96,4.32,6,.05,11.84-1.95,17.23-4.59,2.5-1.23,4.91-2.62,7.24-4.13h14.49Z"/>
          <path class="cls-5" d="M222.22,209.86v12.36h-14.49c5.34-3.46,10.21-7.64,14.49-12.36Z"/>
          <path class="cls-5" d="M222.22,154.03v55.83c-4.28,4.72-9.15,8.9-14.49,12.36h-35.01c7.29-14.08,10.8-30.14,9.67-45.94,5.41-6.56,11.58-12.39,18.94-16.53,6.08-3.41,13.59-5.71,20.89-5.72Z"/>
          <path class="cls-6" d="M222.22,121.56v32.47c-7.3,.01-14.81,2.31-20.89,5.72-7.36,4.14-13.53,9.97-18.94,16.53-.15-1.97-.36-3.92-.64-5.86-3.49-23.71-16.93-43.98-35.37-59.3h70.61c.91,1.96,1.85,3.93,2.82,5.87,.78,1.54,1.61,3.05,2.41,4.57Z"/>
          <path class="cls-5" d="M222.22,111.12v10.44c-.8-1.52-1.63-3.03-2.41-4.57-.97-1.94-1.91-3.91-2.82-5.87h5.23Z"/>
          <path class="cls-12" d="M222.22,31.01V111.12h-5.23c-4.06-8.72-7.54-17.72-10.37-26.91-3-9.74-5.33-20.04-3.63-30.09,1.7-10.06,8.23-19.86,17.99-22.8,.41-.14,.83-.22,1.24-.31Z"/>
          <path class="cls-14" d="M222.22,0V31.01c-.41,.09-.83,.17-1.24,.31-9.76,2.94-16.29,12.74-17.99,22.8-1.7,10.05,.63,20.35,3.63,30.09,2.83,9.19,6.31,18.19,10.37,26.91h-70.61c-10.44-8.69-22.49-15.78-35.26-21.01V0h111.1Z"/>
          <path class="cls-8" d="M212.62,777.78H111.12v-79.09c28.25-4.57,59.22,5.2,77.46,27.55,12.09,14.79,18.36,33,24.04,51.54Z"/>
          <path class="cls-13" d="M172.72,222.22h35.01c-2.33,1.51-4.74,2.9-7.24,4.13-5.39,2.64-11.23,4.64-17.23,4.59-4.63-.06-9.36-1.49-12.96-4.32,.86-1.43,1.66-2.9,2.42-4.4Z"/>
          <path class="cls-8" d="M190.42,512.4c.15,14.89-3.31,29.72-9.69,43.15H111.12v-111.1h51.73c16.61,20.35,27.36,47.42,27.57,67.95Z"/>
          <path class="cls-7" d="M182.39,176.28c1.13,15.8-2.38,31.86-9.67,45.94h-6.31c-2.86-4.79-3.18-10.92-1.81-16.41,1.53-6.05,4.88-11.5,8.36-16.7,2.93-4.4,6.03-8.76,9.43-12.83Z"/>
          <path class="cls-7" d="M181.75,170.42c.28,1.94,.49,3.89,.64,5.86-3.4,4.07-6.5,8.43-9.43,12.83-3.48,5.2-6.83,10.65-8.36,16.7-1.37,5.49-1.05,11.62,1.81,16.41h-55.29V111.12h35.26c18.44,15.32,31.88,35.59,35.37,59.3Z"/>
          <path class="cls-6" d="M111.12,555.55h69.61c-6.86,14.46-17.12,27.32-29.94,36.89-11.32,8.47-25.78,14.18-39.67,14.41v-51.3Z"/>
          <path class="cls-7" d="M166.41,222.22h6.31c-.76,1.5-1.56,2.97-2.42,4.4-1.07-.84-2.05-1.79-2.87-2.88-.38-.49-.71-1-1.02-1.52Z"/>
          <path class="cls-7" d="M167.43,223.74c.82,1.09,1.8,2.04,2.87,2.88-5.12,8.66-11.74,16.45-19.6,22.74-11.39,9.12-25.19,14.98-39.58,17.32v-44.46h55.29c.31,.52,.64,1.03,1.02,1.52Z"/>
          <path class="cls-12" d="M162.85,444.45h-51.73v-29.2c19.52-.39,37.71,12.01,51.73,29.2Z"/>
          <path class="cls-6" d="M146.38,111.12h-35.26v-21.01c12.77,5.23,24.82,12.32,35.26,21.01Z"/>
          <path class="cls-5" d="M132.75,953.4c1.06,15.54,.47,31.09-.96,46.6h-20.67v-111.11h4.69c10.22,19.73,15.43,42.21,16.94,64.51Z"/>
          <path class="cls-5" d="M115.81,888.89h-4.69v-8.32c1.67,2.71,3.22,5.5,4.69,8.32Z"/>
          <rect class="cls-11" x="0" y="888.89" width="111.12" height="111.11"/>
          <path class="cls-3" d="M111.12,880.57v8.32H0v-111.11H46.11c-.18,16.53,4.33,33.03,13.97,46.56,11.18,15.69,27.56,26.88,40.19,41.43,4.03,4.65,7.63,9.61,10.85,14.8Z"/>
          <path class="cls-12" d="M111.12,777.78v102.79c-3.22-5.19-6.82-10.15-10.85-14.8-12.63-14.55-29.01-25.74-40.19-41.43-9.64-13.53-14.15-30.03-13.97-46.56H111.12Z"/>
          <path class="cls-5" d="M111.12,698.69v79.09H46.11c.25-24.75,10.99-49.59,30.75-64.67,10.03-7.66,21.89-12.41,34.26-14.42Z"/>
          <path class="cls-2" d="M111.12,666.67v32.02c-12.37,2.01-24.23,6.76-34.26,14.42-19.76,15.08-30.5,39.92-30.75,64.67H0v-111.11H111.12Z"/>
          <path class="cls-4" d="M111.12,606.85v59.82H0v-111.12H62.11c3.85,17.21,9.76,34.53,24,44.24,7.47,5.09,16.13,7.19,25.01,7.06Z"/>
          <path class="cls-13" d="M111.12,555.55v51.3c-8.88,.13-17.54-1.97-25.01-7.06-14.24-9.71-20.15-27.03-24-44.24h49.01Z"/>
          <path class="cls-3" d="M111.12,444.45v111.1H62.11c-.68-2.99-1.29-6-1.87-8.96-4.29-21.8-8.54-44-6.22-66.1,1.33-12.57,5.1-25.22,11.53-36.04h45.57Z"/>
          <path class="cls-1" d="M111.12,415.25v29.2h-45.57c4.88-8.21,11.28-15.36,19.31-20.6,8.85-5.79,17.67-8.43,26.26-8.6Z"/>
          <path class="cls-14" d="M111.12,333.34v81.91c-8.59,.17-17.41,2.81-26.26,8.6-8.03,5.24-14.43,12.39-19.31,20.6H0v-111.11H111.12Z"/>
          <path class="cls-2" d="M111.12,266.68v66.66H0v-111.12H9.94c18.04,15.1,35.11,31.77,56.92,40.15,14.01,5.39,29.44,6.72,44.26,4.31Z"/>
          <path class="cls-5" d="M111.12,222.22v44.46c-14.82,2.41-30.25,1.08-44.26-4.31-21.81-8.38-38.88-25.05-56.92-40.15H111.12Z"/>
          <path class="cls-3" d="M111.12,111.12v111.1H9.94C6.66,219.49,3.37,216.8,0,214.24V111.12H111.12Z"/>
          <path class="cls-7" d="M111.12,90.11v21.01H0v-28.08c28.07-4.51,56.3-6.25,84.08-.98,9.16,1.74,18.27,4.47,27.04,8.05Z"/>
          <path class="cls-4" d="M111.12,0V90.11c-8.77-3.58-17.88-6.31-27.04-8.05C56.3,76.79,28.07,78.53,0,83.04V0H111.12Z"/>
          <path class="cls-7" d="M0,444.45H65.55c-6.43,10.82-10.2,23.47-11.53,36.04-2.32,22.1,1.93,44.3,6.22,66.1,.58,2.96,1.19,5.97,1.87,8.96H0v-111.1Z"/>
        </g>
      </g>
    </pattern>
  </defs>
  <rect class="cls-10" width="1920" height="1000"/>
</svg>